<?xml version="1.0" standalone="no"?>
<!DOCTYPE svg PUBLIC "-//W3C//DTD SVG 20010904//EN"
 "http://www.w3.org/TR/2001/REC-SVG-20010904/DTD/svg10.dtd">
<svg version="1.0" xmlns="http://www.w3.org/2000/svg"
 width="720.000000pt" height="720.000000pt" viewBox="0 0 720.000000 720.000000"
 preserveAspectRatio="xMidYMid meet">
<metadata>
Created by potrace 1.11, written by Peter Selinger 2001-2013
</metadata>
<g transform="translate(0.000000,720.000000) scale(0.100000,-0.100000)"
fill="#000000" stroke="none">
<path d="M3345 7194 c-622 -49 -1218 -252 -1725 -587 -408 -270 -757 -619
-1027 -1027 -256 -388 -444 -848 -528 -1295 -52 -276 -59 -361 -59 -685 0
-324 8 -412 59 -685 84 -447 272 -907 528 -1295 270 -408 619 -757 1027 -1027
388 -256 848 -444 1295 -528 275 -52 361 -59 685 -59 324 0 410 7 685 59 447
84 907 272 1295 528 408 270 757 619 1027 1027 256 388 444 848 528 1295 51
273 59 361 59 685 0 324 -7 409 -59 685 -84 447 -272 907 -528 1295 -309 466
-727 861 -1212 1143 -139 80 -404 203 -565 261 -261 94 -502 152 -795 191
-115 16 -572 28 -690 19z m2299 -2020 c104 -126 195 -236 203 -245 15 -18 163
-540 156 -552 -2 -4 -657 -530 -1455 -1170 l-1451 -1162 -856 -156 c-471 -86
-858 -155 -859 -153 -2 1 142 359 320 794 l323 792 1458 1168 1459 1169 256
-128 257 -129 189 -228z"/>
<path d="M3636 4383 l-1357 -1087 59 -18 c72 -22 150 -88 182 -153 19 -40 24
-43 39 -32 107 76 2770 2222 2764 2227 -10 10 -312 150 -322 150 -4 0 -618
-489 -1365 -1087z"/>
<path d="M4069 4134 c-739 -592 -1355 -1086 -1368 -1099 l-24 -23 34 -17 c88
-45 164 -134 190 -222 7 -24 14 -43 17 -43 4 0 2696 2153 2725 2179 16 16 11
24 -99 156 -64 77 -120 141 -124 143 -4 1 -612 -482 -1351 -1074z"/>
<path d="M4352 3704 l-1392 -1114 64 -63 c53 -52 67 -73 81 -121 9 -32 15 -69
12 -82 -2 -13 0 -24 5 -24 5 0 336 262 736 583 400 321 1009 809 1354 1084
l626 502 -43 171 c-24 94 -45 173 -47 175 -2 2 -630 -498 -1396 -1111z"/>
<path d="M2180 3187 c-34 -12 -38 -19 -152 -282 -64 -148 -117 -273 -117 -277
-1 -5 4 -8 10 -8 6 0 41 -12 77 -27 213 -84 336 -242 367 -470 4 -29 10 -53
14 -53 7 0 540 106 578 115 29 7 63 80 63 136 0 67 -45 137 -121 188 -34 22
-65 41 -70 41 -5 0 -6 35 -2 78 7 97 -12 147 -88 227 -65 69 -124 98 -199 98
l-56 0 -17 58 c-42 144 -163 218 -287 176z"/>
</g>
</svg>
